<?xml version="1.0" encoding="UTF-8" standalone="no"?><svg xmlns="http://www.w3.org/2000/svg" xmlns:xlink="http://www.w3.org/1999/xlink" contentScriptType="application/ecmascript" contentStyleType="text/css" height="542px" preserveAspectRatio="none" style="width:287px;height:542px;" version="1.1" viewBox="0 0 287 542" width="287px" zoomAndPan="magnify"><defs><filter height="300%" id="f4nulaqgmcrc9" width="300%" x="-1" y="-1"><feGaussianBlur result="blurOut" stdDeviation="2.0"/><feColorMatrix in="blurOut" result="blurOut2" type="matrix" values="0 0 0 0 0 0 0 0 0 0 0 0 0 0 0 0 0 0 .4 0"/><feOffset dx="4.0" dy="4.0" in="blurOut2" result="blurOut3"/><feBlend in="SourceGraphic" in2="blurOut3" mode="normal"/></filter></defs><g><path d="M140.101,13.839 C143.367,7.7016 149.5712,7.4149 152.6128,14.0587 C155.8662,8.0214 161.237,6 166.0553,12.3621 C170.3324,7.3924 175.3677,7.5333 178.5516,13.6 C183.2362,6.2738 187.8611,6.4408 192.7289,13.4185 C196.7887,7.4544 200.7421,7.0306 205.1938,13.0094 C209.4017,6.0797 213.5449,7.3115 217.8642,12.8967 C222.6783,6.0796 227.7153,6.0983 231.5068,13.854 C239.2669,6.7246 248.0583,9.2364 249.5,20.1537 C250.8659,19.7002 251.5531,20.3081 251.2254,21.7201 C258.9358,25.0357 259.3555,32.2604 252.4997,36.8063 C258.3305,40.5691 260.2624,44.5363 254.056,49.7468 C261.5,52.4906 261.2594,58.1759 256.169,62.929 C263.2193,66.3621 263.2276,72.6339 257.2001,77.0237 C264.9476,80.5484 264.7087,86.1783 258.4855,90.9888 C266.7542,94.5531 265.986,100.9565 259.7252,105.7416 C266.7803,111.2963 266.0015,116.2201 258.1384,120.1295 C265.7545,124.2665 264.8409,131.0444 258.5263,135.5323 C264.4432,140.7484 263.7473,146.5956 256.3546,149.7835 C261.2481,153.8897 261.5552,159.0836 255.1146,162.0435 C262.0551,168.5611 260.0105,173.3372 251.9397,176.5751 C259.775,188.3762 256.2142,195.2377 242.5,197.1537 C243.9081,197.5927 244.0064,198.5833 243.0424,199.5576 C239.2217,205.1172 234.6754,204.6833 231.43,198.9652 C226.9951,204.8707 220.7797,205.253 216.6087,198.6525 C214.3354,203.3861 209.0909,204.1859 205.8691,199.7653 C201.3056,206.259 196.1592,207.1623 191.4463,199.9221 C187.6795,206.5319 183.9522,207.5077 178.9724,201.083 C174.6771,207.1051 168.8277,206.2472 165.6231,199.9054 C160.9794,204.9995 155.9724,204.4821 152.4007,198.6125 C142.5121,206.7649 132.5997,203.7176 131.5,190.1537 C133.0415,189.9136 134.3184,190.9266 133.6626,192.6162 C125.6288,189.8341 124.4493,182.4816 131.6579,177.6569 C122.6028,174.0277 121.814,167.9984 129.2467,161.8535 C123.3662,159.1631 121.7186,153.8266 127.4813,149.4756 C119.6506,144.8711 119.9909,139.9478 125.8821,133.9315 C119.4387,129.5214 119.0495,124.5549 125.7064,119.9798 C117.7066,116.7145 117.6315,111.555 123.5221,106.1032 C115.9379,101.554 116.7725,94.3936 125.088,91.5558 C118.3552,85.4434 119.4751,81.0821 127.2484,77.1444 C120.0856,73.213 121.2963,67.6981 127.1649,63.6859 C121.9786,57.4157 122.6398,53.0942 130.8314,50.5612 C125.098,45.9576 124.4029,40.0991 131.9753,36.5846 C121.4565,27.1974 125.6269,16.027 138.5,13.1537 C139.3041,12.6914 139.9198,12.8461 140.101,13.839 " fill="#FFFFFF" filter="url(#f4nulaqgmcrc9)" style="stroke:#000000;stroke-width:1.5;"/><!--MD5=[ce5ccd5b359d4259c2ab78015c688698]
cluster container--><polygon fill="#FFFFFF" filter="url(#f4nulaqgmcrc9)" points="27.5,229.1537,100.5,229.1537,107.5,252.763,250.5,252.763,250.5,437.1537,27.5,437.1537,27.5,229.1537" style="stroke:#000000;stroke-width:1.5;"/><line style="stroke:#000000;stroke-width:1.5;" x1="27.5" x2="107.5" y1="252.763" y2="252.763"/><text fill="#000000" font-family="sans-serif" font-size="14" font-weight="bold" lengthAdjust="spacing" textLength="67" x="31.5" y="245.6869">container</text><!--MD5=[f641ca9fa1d9c91d2e89ad9317e006b8]
entity Elixir Host--><rect fill="#FEFECE" filter="url(#f4nulaqgmcrc9)" height="47.6094" style="stroke:#A80036;stroke-width:1.5;" width="101" x="140" y="21.1537"/><rect fill="#FEFECE" height="10" style="stroke:#A80036;stroke-width:1.5;" width="15" x="221" y="26.1537"/><rect fill="#FEFECE" height="2" style="stroke:#A80036;stroke-width:1.5;" width="4" x="219" y="28.1537"/><rect fill="#FEFECE" height="2" style="stroke:#A80036;stroke-width:1.5;" width="4" x="219" y="32.1537"/><text fill="#000000" font-family="sans-serif" font-size="14" lengthAdjust="spacing" textLength="61" x="155" y="55.6869">Elixir Host</text><!--MD5=[33a140176560c0d2b3a54d8ed90303d7]
entity graphql--><ellipse cx="190.5" cy="159.1537" fill="#FEFECE" filter="url(#f4nulaqgmcrc9)" rx="8" ry="8" style="stroke:#A80036;stroke-width:1.5;"/><text fill="#000000" font-family="sans-serif" font-size="14" lengthAdjust="spacing" textLength="48" x="166.5" y="190.6869">graphql</text><!--MD5=[b44dd552d190738f366cb0d4cbe6023c]
entity Runner--><rect fill="#FEFECE" filter="url(#f4nulaqgmcrc9)" height="47.6094" style="stroke:#A80036;stroke-width:1.5;" width="87" x="147" y="265.1537"/><rect fill="#FEFECE" height="10" style="stroke:#A80036;stroke-width:1.5;" width="15" x="214" y="270.1537"/><rect fill="#FEFECE" height="2" style="stroke:#A80036;stroke-width:1.5;" width="4" x="212" y="272.1537"/><rect fill="#FEFECE" height="2" style="stroke:#A80036;stroke-width:1.5;" width="4" x="212" y="276.1537"/><text fill="#000000" font-family="sans-serif" font-size="14" lengthAdjust="spacing" textLength="47" x="162" y="299.6869">Runner</text><!--MD5=[742f309588485cc09a132aa7a119ce4f]
entity Test--><rect fill="#FEFECE" filter="url(#f4nulaqgmcrc9)" height="47.6094" style="stroke:#A80036;stroke-width:1.5;" width="68" x="43.5" y="265.1537"/><rect fill="#FEFECE" height="10" style="stroke:#A80036;stroke-width:1.5;" width="15" x="91.5" y="270.1537"/><rect fill="#FEFECE" height="2" style="stroke:#A80036;stroke-width:1.5;" width="4" x="89.5" y="272.1537"/><rect fill="#FEFECE" height="2" style="stroke:#A80036;stroke-width:1.5;" width="4" x="89.5" y="276.1537"/><text fill="#000000" font-family="sans-serif" font-size="14" lengthAdjust="spacing" textLength="28" x="58.5" y="299.6869">Test</text><!--MD5=[e9dede37b31fdda9664526f66258b036]
entity Browser--><rect fill="#FEFECE" filter="url(#f4nulaqgmcrc9)" height="47.6094" style="stroke:#A80036;stroke-width:1.5;" width="91" x="93" y="373.1537"/><rect fill="#FEFECE" height="10" style="stroke:#A80036;stroke-width:1.5;" width="15" x="164" y="378.1537"/><rect fill="#FEFECE" height="2" style="stroke:#A80036;stroke-width:1.5;" width="4" x="162" y="380.1537"/><rect fill="#FEFECE" height="2" style="stroke:#A80036;stroke-width:1.5;" width="4" x="162" y="384.1537"/><text fill="#000000" font-family="sans-serif" font-size="14" lengthAdjust="spacing" textLength="51" x="108" y="407.6869">Browser</text><!--MD5=[87d1e8485af84344d248ea5a8241abd8]
entity LAN Device--><rect fill="#FEFECE" filter="url(#f4nulaqgmcrc9)" height="47.6094" style="stroke:#A80036;stroke-width:1.5;" width="113" x="7" y="481.1537"/><rect fill="#FEFECE" height="10" style="stroke:#A80036;stroke-width:1.5;" width="15" x="100" y="486.1537"/><rect fill="#FEFECE" height="2" style="stroke:#A80036;stroke-width:1.5;" width="4" x="98" y="488.1537"/><rect fill="#FEFECE" height="2" style="stroke:#A80036;stroke-width:1.5;" width="4" x="98" y="492.1537"/><text fill="#000000" font-family="sans-serif" font-size="14" lengthAdjust="spacing" textLength="73" x="22" y="515.6869">LAN Device</text><!--MD5=[4d4c702f22314cd7a91f617c493bb5dd]
entity WAN Device--><rect fill="#FEFECE" filter="url(#f4nulaqgmcrc9)" height="47.6094" style="stroke:#A80036;stroke-width:1.5;" width="118" x="155.5" y="481.1537"/><rect fill="#FEFECE" height="10" style="stroke:#A80036;stroke-width:1.5;" width="15" x="253.5" y="486.1537"/><rect fill="#FEFECE" height="2" style="stroke:#A80036;stroke-width:1.5;" width="4" x="251.5" y="488.1537"/><rect fill="#FEFECE" height="2" style="stroke:#A80036;stroke-width:1.5;" width="4" x="251.5" y="492.1537"/><text fill="#000000" font-family="sans-serif" font-size="14" lengthAdjust="spacing" textLength="78" x="170.5" y="515.6869">WAN Device</text><!--MD5=[5ea89f1a12b4c2c786b02bec1e37896a]
link Elixir Host to graphql--><path d="M190.5,69.3637 C190.5,92.1237 190.5,126.0437 190.5,144.6837 " fill="none" id="Elixir Host-to-graphql" style="stroke:#A80036;stroke-width:1.0;"/><polygon fill="#A80036" points="190.5,149.9437,194.5,140.9437,190.5,144.9437,186.5,140.9437,190.5,149.9437" style="stroke:#A80036;stroke-width:1.0;"/><!--MD5=[4f6bb3549d35b1b077fe017c334c0b45]
link graphql to Runner--><path d="M190.5,173.4137 C190.5,193.6937 190.5,232.8837 190.5,259.7637 " fill="none" id="graphql-Runner" style="stroke:#A80036;stroke-width:1.0;"/><polygon fill="#A80036" points="190.5,264.9737,194.5,255.9737,190.5,259.9737,186.5,255.9737,190.5,264.9737" style="stroke:#A80036;stroke-width:1.0;"/><polygon fill="#A80036" points="190.5,168.1637,186.5,177.1637,190.5,173.1637,194.5,177.1637,190.5,168.1637" style="stroke:#A80036;stroke-width:1.0;"/><!--MD5=[1ad8517dfda48603698b96f70b72de13]
link Test to Runner--><path d="M117.12,289.1537 C125.35,289.1537 133.57,289.1537 141.8,289.1537 " fill="none" id="Test-Runner" style="stroke:#A80036;stroke-width:1.0;"/><polygon fill="#A80036" points="146.92,289.1537,137.92,285.1537,141.92,289.1537,137.92,293.1537,146.92,289.1537" style="stroke:#A80036;stroke-width:1.0;"/><polygon fill="#A80036" points="111.93,289.1537,120.93,293.1537,116.93,289.1537,120.93,285.1537,111.93,289.1537" style="stroke:#A80036;stroke-width:1.0;"/><!--MD5=[3df63eb39a30a08e0b65bd950315caec]
link Runner to Browser--><path d="M176.92,317.8437 C169.32,333.3337 159.87,352.5937 152.24,368.1337 " fill="none" id="Runner-Browser" style="stroke:#A80036;stroke-width:1.0;"/><polygon fill="#A80036" points="149.94,372.8337,157.4944,366.5145,152.1417,368.3445,150.3117,362.9918,149.94,372.8337" style="stroke:#A80036;stroke-width:1.0;"/><polygon fill="#A80036" points="179.22,313.1537,171.6736,319.4823,177.0239,317.6456,178.8606,322.996,179.22,313.1537" style="stroke:#A80036;stroke-width:1.0;"/><!--MD5=[c4abb764159e72ef370cb85b596fed5f]
link Test to Browser--><path d="M93.44,317.8437 C102.35,333.3337 113.43,352.5937 122.38,368.1337 " fill="none" id="Test-Browser" style="stroke:#A80036;stroke-width:1.0;"/><polygon fill="#A80036" points="125.08,372.8337,124.0426,363.0396,122.5793,368.5039,117.115,367.0407,125.08,372.8337" style="stroke:#A80036;stroke-width:1.0;"/><polygon fill="#A80036" points="90.74,313.1537,91.7635,322.9492,93.2345,317.487,98.6967,318.958,90.74,313.1537" style="stroke:#A80036;stroke-width:1.0;"/><!--MD5=[ec326fb34c53facc44565e46d39df4ef]
link Browser to LAN Device--><path d="M119.22,425.4037 C108.12,441.0937 94.21,460.7537 83.07,476.5037 " fill="none" id="Browser-LAN Device" style="stroke:#A80036;stroke-width:1.0;"/><polygon fill="#A80036" points="80,480.8337,88.4594,475.79,82.8845,476.7496,81.9249,471.1747,80,480.8337" style="stroke:#A80036;stroke-width:1.0;"/><polygon fill="#A80036" points="122.23,421.1537,113.7706,426.1973,119.3455,425.2377,120.3051,430.8126,122.23,421.1537" style="stroke:#A80036;stroke-width:1.0;"/><!--MD5=[7075d46200cb61fe2d25b4beaea5e9b5]
link Browser to WAN Device--><path d="M158.04,425.4037 C169.29,441.0937 183.38,460.7537 194.67,476.5037 " fill="none" id="Browser-WAN Device" style="stroke:#A80036;stroke-width:1.0;"/><polygon fill="#A80036" points="197.78,480.8337,195.8166,471.1825,194.8792,476.7611,189.3006,475.8237,197.78,480.8337" style="stroke:#A80036;stroke-width:1.0;"/><polygon fill="#A80036" points="154.99,421.1537,156.9758,430.8002,157.9002,425.2194,163.481,426.1439,154.99,421.1537" style="stroke:#A80036;stroke-width:1.0;"/><!--MD5=[f2ac404d4ff7e120be59fe93c2b9cf3a]
@startuml
  cloud {
    [Elixir Host] -down-> () graphql
  }

  package "container" {
    () graphql <-down-> [Runner]
    [Runner] <-left-> [Test]
    [Runner] <-down-> [Browser]
    [Test] <-down-> [Browser]
  }


  Browser <-down-> [LAN Device]
  Browser <-down-> [WAN Device]
@enduml

PlantUML version 1.2021.00(Sun Jan 10 05:25:05 EST 2021)
(GPL source distribution)
Java Runtime: Java(TM) SE Runtime Environment
JVM: Java HotSpot(TM) 64-Bit Server VM
Default Encoding: Cp1252
Language: en
Country: US
--></g></svg>