<svg width="64" height="64" xmlns="http://www.w3.org/2000/svg">
 <defs>
  <linearGradient y2="1" y1="0.07389" x2="0.5" x1="0.52258" id="a">
   <stop stop-color="#d9d8dc" offset="0"/>
   <stop stop-opacity="0.38527" stop-color="#fff" offset="1"/>
  </linearGradient>
  <linearGradient y2="1" y1="0.07691" x2="0.5" x1="0.71179" id="b">
   <stop stop-opacity="0.67193" stop-color="#8d67af" offset="0"/>
   <stop stop-color="#9f8daf" offset="1"/>
  </linearGradient>
  <linearGradient y2="0.98228" y1="0.31435" x2="0.54233" x1="0.54233" id="c">
   <stop stop-opacity="0.76163" stop-color="#26053d" offset="0"/>
   <stop stop-opacity="0.27768" stop-color="#b7b4b4" offset="1"/>
  </linearGradient>
  <linearGradient y2="0.92768" y1="0.12539" x2="0.5" x1="0.10133" id="d">
   <stop stop-opacity="0.45955" stop-color="#91739f" offset="0"/>
   <stop stop-opacity="0.53991" stop-color="#32054f" offset="1"/>
  </linearGradient>
  <linearGradient y2="0.21227" y1="0.9641" x2="0.09647" x1="0.80023" id="e">
   <stop stop-opacity="0.33118" stop-color="#463d49" offset="0"/>
   <stop stop-opacity="0.82139" stop-color="#340a50" offset="1"/>
  </linearGradient>
  <linearGradient y2="1" y1="0.07419" x2="0.5" x1="0.76347" id="f">
   <stop stop-opacity="0.14524" stop-color="#715383" offset="0"/>
   <stop stop-opacity="0.23364" stop-color="#f4f4f4" offset="1"/>
  </linearGradient>
  <linearGradient y2="0.5" y1="0.72665" x2="0.11347" x1="1.31792" id="g">
   <stop stop-opacity="0.35609" stop-color="#a5a1a8" offset="0"/>
   <stop stop-opacity="0.58198" stop-color="#370c50" offset="1"/>
  </linearGradient>
 </defs>
 <g>
  <title>Layer 1</title>
  <g stroke="null" id="svg_1" fill-rule="evenodd">
   <path stroke="null" id="svg_2" fill="url(#a)" d="m30.88238,23.79554c-1.31698,0.46682 -2.5883,1.82933 -3.81396,4.08753c-1.83849,3.38731 -4.213,8.20074 -0.94329,12.0118c1.51267,1.76311 4.01027,2.80369 7.28799,1.15564c2.63314,-1.32395 3.36545,-5.12336 2.42011,-6.90877c-1.95004,-3.68294 -3.92844,-4.59133 -4.45822,-6.87533c-0.35318,-1.52267 -0.5174,-2.67963 -0.49264,-3.47088z"/>
   <path stroke="null" id="svg_3" fill="url(#b)" d="m30.88238,23.74993c-1.32366,0.47163 -2.59498,1.83414 -3.81396,4.08753c-1.82847,3.38009 -4.213,8.20074 -0.94329,12.0118c1.51267,1.76311 3.97812,2.33285 5.34615,1.28718c0.89184,-0.68169 1.4984,-1.33149 1.84787,-2.7006c0.38912,-1.52447 0.09057,-3.5769 -0.11401,-4.51974c-0.25887,-1.19307 -0.3436,-2.50256 -0.25419,-3.92845c-0.0315,-0.03838 -0.05504,-0.0671 -0.07063,-0.08617c-0.71221,-0.87162 -1.26179,-1.63082 -1.50531,-2.68068c-0.35318,-1.52267 -0.5174,-2.67962 -0.49264,-3.47087z"/>
   <path stroke="null" id="svg_4" fill="url(#c)" d="m29.78637,24.34295c-1.23288,0.97439 -2.14956,2.60877 -2.75003,4.90315c-0.90071,3.44156 -0.99831,6.61524 -0.68065,8.46121c0.61581,3.57852 3.80838,4.93688 7.08307,3.27122c2.01529,-1.02507 2.85467,-3.22538 2.8102,-5.61373c-0.04605,-2.47297 -4.82487,-5.27565 -5.6712,-7.3395c-0.56422,-1.37589 -0.82801,-2.60335 -0.79139,-3.68235z"/>
   <path stroke="null" id="svg_5" fill="url(#d)" d="m32.91199,30.79522c1.4786,1.89627 1.80091,3.21631 0.96692,3.9601c-1.25098,1.11569 -4.31016,1.84364 -6.2133,0.49403c-1.26875,-0.89974 -1.7488,-2.8299 -1.44015,-5.79046c-0.52374,1.09379 -0.96657,2.20181 -1.32849,3.32405c-0.36192,1.12224 -0.4676,2.29665 -0.31706,3.52322c0.45356,0.9176 1.55635,1.53045 3.30834,1.83854c2.62799,0.46214 5.11533,0.23379 6.78434,-0.60757c1.11267,-0.5609 1.63896,-1.11926 1.57886,-1.67508c0.04015,-0.82078 -0.21295,-1.60212 -0.75932,-2.34401c-0.54636,-0.74189 -1.40641,-1.6495 -2.58015,-2.72283z"/>
   <path stroke="null" id="svg_6" fill="url(#e)" d="m27.13387,28.90176c-0.01236,1.36949 0.33977,2.67136 1.0564,3.90561c1.07494,1.85136 2.3297,3.68075 4.20733,5.19714c1.25175,1.01093 2.25196,1.33754 3.00061,0.97983c-0.61491,1.10049 -1.26874,1.63974 -1.96149,1.61775c-1.03912,-0.03299 -2.30616,-0.48711 -4.33628,-2.92672c-1.35341,-1.6264 -2.27929,-3.16487 -2.77762,-4.61541c0.07902,-0.57545 0.16282,-1.14861 0.25139,-1.71949c0.08857,-0.57088 0.27512,-1.38378 0.55965,-2.4387z"/>
   <path stroke="null" id="svg_7" fill="url(#f)" d="m30.30955,30.78117c0.11486,1.11563 0.54898,2.90024 0,4.08844c-0.54898,1.1882 -3.08466,3.33471 -2.38471,5.2256c0.69995,1.89089 2.40573,1.46637 3.47572,0.59495c1.06999,-0.87142 1.64273,-2.28839 1.76969,-3.28487c0.12695,-0.99648 -0.30374,-2.91388 -0.44382,-4.58166c-0.09338,-1.11185 -0.03003,-2.06515 0.19008,-2.85988l-0.32787,-0.41259l-1.92984,-0.57139c-0.30941,0.45718 -0.42582,1.05764 -0.34925,1.8014z"/>
   <path stroke="null" id="svg_8" fill="url(#g)" d="m30.99842,25.2553c-0.62461,0.26393 -1.21639,0.78689 -1.77536,1.5689c-0.83844,1.173 -1.26549,1.87615 -0.94939,4.20134c0.21073,1.55012 0.36156,2.97621 0.4525,4.27826l2.70296,-7.85336c-0.09937,-0.40016 -0.18202,-0.76156 -0.24794,-1.0842c-0.06593,-0.32263 -0.12685,-0.69295 -0.18277,-1.11093z"/>
   <path stroke="null" id="svg_9" fill-opacity="0.31632" fill="#330a4c" d="m31.42394,27.43481c-0.68616,0.4005 -1.21784,1.22102 -1.59505,2.46156c-0.37721,1.24054 -0.7223,2.97479 -1.03528,5.20274c0.41744,-1.41706 0.69435,-2.44344 0.83072,-3.07912c0.20456,-0.95352 0.27444,-2.30192 0.81759,-3.21736c0.3621,-0.61029 0.68944,-1.06623 0.98202,-1.36783z"/>
   <path stroke="null" id="svg_10" fill="#fff" d="m28.24687,40.7267c1.12918,0.16132 1.71963,0.30474 1.77136,0.43026c0.07759,0.18828 -0.14294,0.3605 -0.76973,0.24477c-0.41787,-0.07715 -0.75174,-0.30216 -1.00162,-0.67503z"/>
   <path stroke="null" id="svg_11" fill-opacity="0.60326" fill="#ededed" d="m28.81415,25.2553c-0.62109,0.74197 -1.15927,1.52857 -1.61454,2.35981s-0.78058,1.45138 -0.97591,1.8604c-0.06055,0.30507 -0.0901,0.75522 -0.08865,1.35043c0.00144,0.59521 0.05293,1.25703 0.15445,1.98544c0.08889,-1.42638 0.36099,-2.81091 0.81631,-4.15361c0.45533,-1.34269 1.02477,-2.47685 1.70834,-3.40247z"/>
  </g>
  <g id="svg_20">
   <path stroke="null" id="svg_12" d="m21.8056,13.86947c-8.10048,-1.47537 -14.50521,0.0688 -17.05783,4.49007c-1.90482,3.29925 -1.36035,7.6735 1.32047,12.34931c0.22817,0.39798 0.73578,0.53564 1.13375,0.30746c0.39798,-0.22818 0.53564,-0.73578 0.30746,-1.13376c-2.41491,-4.21203 -2.88482,-7.98717 -1.32297,-10.69237c2.12047,-3.67277 7.83337,-5.05015 15.32143,-3.68632c0.45133,0.0822 0.88384,-0.21704 0.96604,-0.66836c0.0822,-0.45133 -0.21704,-0.88384 -0.66836,-0.96603l0,0l0,0zm-11.52484,22.5228c3.27538,3.5994 7.53066,6.97546 12.38355,9.77728c11.75051,6.78417 24.25977,8.59749 30.42484,4.39379c0.37903,-0.25844 0.47678,-0.77521 0.21834,-1.15424c-0.25844,-0.37903 -0.77521,-0.47678 -1.15424,-0.21833c-5.51767,3.76226 -17.40056,2.03973 -28.6583,-4.45993c-4.70785,-2.71808 -8.82835,-5.98722 -11.98549,-9.45667c-0.30875,-0.3393 -0.8341,-0.36406 -1.1734,-0.0553c-0.33929,0.30875 -0.36406,0.8341 -0.0553,1.1734l0,0l0,0z"/>
   <path stroke="null" id="svg_13" d="m51.12251,35.38177c5.304,-6.26585 7.15597,-12.56788 4.60861,-16.98004c-1.8744,-3.24656 -5.83693,-4.9606 -11.10307,-5.02909c-0.45871,-0.00597 -0.83541,0.36106 -0.84138,0.81977c-0.00596,0.45871 0.36106,0.83541 0.81977,0.84138c4.73623,0.06159 8.15004,1.53828 9.68596,4.19858c2.11589,3.66483 0.46435,9.28484 -4.43788,15.07605c-0.29639,0.35015 -0.25282,0.87428 0.09733,1.17067c0.35014,0.2964 0.87427,0.25283 1.17067,-0.09732l0,0l0,0zm-13.63121,-21.23572c-4.79569,1.0275 -9.90027,3.03646 -14.80263,5.86684c-12.13018,7.00337 -20.04298,17.33009 -18.94403,24.81789c0.06662,0.45389 0.48857,0.76784 0.94246,0.70122c0.45389,-0.06661 0.76784,-0.48856 0.70122,-0.94245c-0.97576,-6.64838 6.5248,-16.4371 18.131,-23.13794c4.75568,-2.74569 9.69827,-4.69091 14.32002,-5.68114c0.44857,-0.0961 0.7343,-0.53766 0.63819,-0.98623c-0.09611,-0.44858 -0.53766,-0.7343 -0.98623,-0.6382l0,0l0,0z"/>
   <path stroke="null" id="svg_14" d="m17.83992,50.02203c2.77318,7.74371 7.3101,12.51147 12.4117,12.51147c3.7207,0 7.16307,-2.53629 9.84742,-7.00161c0.23636,-0.39318 0.10923,-0.90351 -0.28394,-1.13987c-0.39318,-0.23636 -0.90352,-0.10923 -1.13987,0.28394c-2.41242,4.01298 -5.37567,6.19625 -8.4236,6.19625c-4.23778,0 -8.2843,-4.25242 -10.84768,-11.41028c-0.15467,-0.43189 -0.63017,-0.65662 -1.06206,-0.50196c-0.43189,0.15467 -0.65662,0.63017 -0.50196,1.06206l0,0l0,0zm25.33094,-1.51476c1.43563,-4.5877 2.20667,-9.88003 2.20667,-15.39495c0,-13.76131 -4.81639,-25.62406 -11.6767,-28.67025c-0.41928,-0.18617 -0.91009,0.0028 -1.09626,0.42207c-0.18617,0.41928 0.0028,0.91009 0.42207,1.09626c6.11858,2.71683 10.6896,13.97528 10.6896,27.15192c0,5.35037 -0.74669,10.47559 -2.13084,14.89882c-0.137,0.43781 0.10685,0.9038 0.54467,1.04081c0.43781,0.137 0.9038,-0.10685 1.0408,-0.54467l0,0l0,0z"/>
   <path stroke="null" id="svg_15" d="m58.81509,47.69349c0,-2.19566 -1.77994,-3.9756 -3.9756,-3.9756c-2.19566,0 -3.9756,1.77994 -3.9756,3.9756c0,2.19566 1.77994,3.9756 3.9756,3.9756c2.19566,0 3.9756,-1.77994 3.9756,-3.9756l0,0l0,0zm-1.66129,0c0,1.27816 -1.03616,2.31431 -2.31431,2.31431c-1.27816,0 -2.31432,-1.03615 -2.31432,-2.31431c0,-1.27816 1.03616,-2.31432 2.31432,-2.31432c1.27816,0 2.31431,1.03616 2.31431,2.31432l0,0l0,0z"/>
   <path stroke="null" id="svg_16" d="m5.60659,51.66909c2.19566,0 3.9756,-1.77994 3.9756,-3.9756c0,-2.19566 -1.77994,-3.9756 -3.9756,-3.9756c-2.19566,0 -3.9756,1.77994 -3.9756,3.9756c0,2.19566 1.77994,3.9756 3.9756,3.9756l0,0l0,0zm0,-1.66129c-1.27816,0 -2.31432,-1.03615 -2.31432,-2.31431c0,-1.27816 1.03616,-2.31432 2.31432,-2.31432c1.27816,0 2.31431,1.03616 2.31431,2.31432c0,1.27816 -1.03616,2.31431 -2.31431,2.31431l0,0l0,0z"/>
   <path stroke="null" id="svg_17" d="m30.25162,8.49739c2.19566,0 3.9756,-1.77994 3.9756,-3.97561c0,-2.19566 -1.77994,-3.9756 -3.9756,-3.9756c-2.19566,0 -3.9756,1.77994 -3.9756,3.9756c0,2.19566 1.77994,3.97561 3.9756,3.97561l0,0l0,0zm0,-1.66129c-1.27816,0 -2.31431,-1.03616 -2.31431,-2.31432c0,-1.27816 1.03615,-2.31431 2.31431,-2.31431c1.27816,0 2.31432,1.03616 2.31432,2.31431c0,1.27816 -1.03616,2.31432 -2.31432,2.31432l0,0l0,0z"/>
  </g>
 </g>
</svg>